# xmcd
#
# Track frame offsets: 
#        150
#        14362
#        28162
#        43462
#        55987
#        69937
#        93262
#        110550
#        126900
#        138825
#        151950
#        166725
#        188700
#        202312
#
# Disc length: 2827 seconds
#
# Revision: 1
# Processed by: cddbd v1.5.2PL0 Copyright (c) Steve Scherf et al.
# Submitted via: ExactAudioCopyFreeDBPlugin 1.0
#
DISCID=c40b090e
DTITLE=Carole Creveling - Here Comes Carole Creveling
DYEAR=1955
DGENRE=Jazz
TTITLE0=My Old Flame
TTITLE1=My Ship
TTITLE2=You Have Cast Your Shadow On The Sea
TTITLE3=Better Luck Next Time
TTITLE4=Long Ago
TTITLE5=Star Eyes
TTITLE6=This Heart Of Mine
TTITLE7=One Morning In May
TTITLE8=Now We Know
TTITLE9=Nobody Else But Me
TTITLE10=Anything Can Happen With You
TTITLE11=There's No You
TTITLE12=Willow Weep For Me
TTITLE13=Between The Devil And The Deep Blue Sea
EXTD=YEAR: 1955
EXTT0=
EXTT1=
EXTT2=
EXTT3=
EXTT4=
EXTT5=
EXTT6=
EXTT7=
EXTT8=
EXTT9=
EXTT10=
EXTT11=
EXTT12=
EXTT13=
PLAYORDER=
